{
  "source": "C:\\Users\\Peter\\Desktop\\stuff\\MIUN\\quantitative_research\\video_compression\\videos\\BVI-HD\\BVI-HD_CDVL_videos\\ORIG\\CarpetCircleFast_1920x1080_60fps.mp4",
  "output": "C:\\Users\\Peter\\Desktop\\stuff\\MIUN\\quantitative_research\\video_compression\\compressed_videos\\BVI-HD\\vp9\\8\\CarpetCircleFast_1920x1080_60fps_vp9.webm",
  "codec": "vp9",
  "ok": "Input #0, mov,mp4,m4a,3gp,3g2,mj2, from 'C:\\Users\\Peter\\Desktop\\stuff\\MIUN\\quantitative_research\\video_compression\\videos\\BVI-HD\\BVI-HD_CDVL_videos\\ORIG\\CarpetCircleFast_1920x1080_60fps.mp4':\n  Metadata:\n    major_brand     : isom\n    minor_version   : 512\n    compatible_brands: isomiso2avc1mp41\n    encoder         : Lavf54.28.101\n  Duration: 00:00:05.00, start: 0.000000, bitrate: 324759 kb/s\n  Stream #0:0[0x1](und): Video: h264 (High 4:4:4 Predictive) (avc1 / 0x31637661), yuv420p(progressive), 1920x1080, 324754 kb/s, 60 fps, 60 tbr, 60 tbn (default)\n    Metadata:\n      handler_name    : VideoHandler\n      vendor_id       : [0][0][0][0]\n[out#0/webm @ 000002922bd30e00] Codec AVOption b:a (set bitrate (in bits/s)) has not been used for any stream. The most likely reason is either wrong type (e.g. a video option with no video streams) or that it is a private option of some decoder which was not actually used for any stream.\nStream mapping:\n  Stream #0:0 -> #0:0 (h264 (native) -> vp9 (libvpx-vp9))\nPress [q] to stop, [?] for help\n[libvpx-vp9 @ 000002922c6e4c00] v1.15.2-100-g40561f514\nOutput #0, webm, to 'C:\\Users\\Peter\\Desktop\\stuff\\MIUN\\quantitative_research\\video_compression\\compressed_videos\\BVI-HD\\vp9\\8\\CarpetCircleFast_1920x1080_60fps_vp9.webm':\n  Metadata:\n    major_brand     : isom\n    minor_version   : 512\n    compatible_brands: isomiso2avc1mp41\n    encoder         : Lavf62.3.100\n  Stream #0:0(und): Video: vp9, yuv420p(tv, progressive), 1920x1080, q=2-31, 8000 kb/s, 60 fps, 1k tbn (default)\n    Metadata:\n      encoder         : Lavc62.11.100 libvpx-vp9\n      handler_name    : VideoHandler\n      vendor_id       : [0][0][0][0]\n    Side data:\n      cpb: bitrate max/min/avg: 0/0/0 buffer size: 8000000 vbv_delay: N/A\nframe=    0 fps=0.0 q=0.0 size=       0KiB time=N/A bitrate=N/A speed=N/A elapsed=0:00:00.51    \nframe=    6 fps=5.8 q=28.0 size=       1KiB time=00:00:00.10 bitrate=  50.6kbits/s speed=0.0961x elapsed=0:00:01.04    \nframe=   12 fps=7.7 q=30.0 size=       1KiB time=00:00:00.20 bitrate=  25.3kbits/s speed=0.129x elapsed=0:00:01.55    \nframe=   18 fps=8.5 q=26.0 size=       1KiB time=00:00:00.30 bitrate=  16.9kbits/s speed=0.142x elapsed=0:00:02.10    \nframe=   23 fps=8.7 q=19.0 size=       1KiB time=00:00:00.38 bitrate=  13.2kbits/s speed=0.145x elapsed=0:00:02.64    \nframe=   27 fps=8.5 q=22.0 size=       1KiB time=00:00:00.45 bitrate=  11.3kbits/s speed=0.142x elapsed=0:00:03.16    \nframe=   33 fps=8.9 q=22.0 size=       1KiB time=00:00:00.55 bitrate=   9.2kbits/s speed=0.149x elapsed=0:00:03.69    \nframe=   37 fps=8.8 q=12.0 size=       1KiB time=00:00:00.61 bitrate=   8.2kbits/s speed=0.146x elapsed=0:00:04.20    \nframe=   42 fps=8.9 q=24.0 size=       1KiB time=00:00:00.70 bitrate=   7.2kbits/s speed=0.148x elapsed=0:00:04.73    \nframe=   47 fps=8.9 q=23.0 size=       1KiB time=00:00:00.78 bitrate=   6.5kbits/s speed=0.149x elapsed=0:00:05.26    \nframe=   51 fps=8.8 q=21.0 size=       1KiB time=00:00:00.85 bitrate=   6.0kbits/s speed=0.147x elapsed=0:00:05.80    \nframe=   56 fps=8.8 q=35.0 size=       1KiB time=00:00:00.93 bitrate=   5.4kbits/s speed=0.147x elapsed=0:00:06.33    \nframe=   60 fps=8.7 q=34.0 size=       1KiB time=00:00:01.00 bitrate=   5.1kbits/s speed=0.146x elapsed=0:00:06.86    \nframe=   66 fps=9.0 q=34.0 size=       1KiB time=00:00:01.10 bitrate=   4.6kbits/s speed=0.149x elapsed=0:00:07.36    \nframe=   71 fps=9.0 q=33.0 size=       1KiB time=00:00:01.18 bitrate=   4.3kbits/s speed=0.15x elapsed=0:00:07.89    \nframe=   75 fps=8.9 q=27.0 size=       1KiB time=00:00:01.25 bitrate=   4.1kbits/s speed=0.149x elapsed=0:00:08.41    \nframe=   81 fps=9.1 q=28.0 size=       1KiB time=00:00:01.35 bitrate=   3.8kbits/s speed=0.151x elapsed=0:00:08.93    \nframe=   85 fps=9.0 q=12.0 size=       1KiB time=00:00:01.41 bitrate=   3.6kbits/s speed=0.15x elapsed=0:00:09.47    \nframe=   90 fps=9.0 q=41.0 size=       1KiB time=00:00:01.50 bitrate=   3.4kbits/s speed=0.15x elapsed=0:00:10.00    \nframe=   96 fps=9.1 q=35.0 size=       1KiB time=00:00:01.60 bitrate=   3.2kbits/s speed=0.152x elapsed=0:00:10.52    \nframe=   99 fps=9.0 q=22.0 size=       1KiB time=00:00:01.65 bitrate=   3.1kbits/s speed=0.149x elapsed=0:00:11.05    \nframe=  104 fps=9.0 q=44.0 size=       1KiB time=00:00:01.73 bitrate=   2.9kbits/s speed=0.15x elapsed=0:00:11.57    \nframe=  108 fps=8.9 q=37.0 size=       1KiB time=00:00:01.80 bitrate=   2.8kbits/s speed=0.148x elapsed=0:00:12.13    \nframe=  114 fps=9.0 q=35.0 size=       1KiB time=00:00:01.90 bitrate=   2.7kbits/s speed=0.15x elapsed=0:00:12.67    \nframe=  118 fps=8.9 q=32.0 size=       1KiB time=00:00:01.96 bitrate=   2.6kbits/s speed=0.149x elapsed=0:00:13.20    \nframe=  124 fps=9.0 q=27.0 size=       1KiB time=00:00:02.06 bitrate=   2.5kbits/s speed=0.151x elapsed=0:00:13.71    \nframe=  129 fps=9.1 q=16.0 size=       1KiB time=00:00:02.15 bitrate=   2.4kbits/s speed=0.151x elapsed=0:00:14.24    \nframe=  135 fps=9.1 q=18.0 size=    2304KiB time=00:00:02.25 bitrate=8388.6kbits/s speed=0.152x elapsed=0:00:14.77    \nframe=  139 fps=9.1 q=19.0 size=    2304KiB time=00:00:02.31 bitrate=8147.2kbits/s speed=0.151x elapsed=0:00:15.29    \nframe=  145 fps=9.2 q=30.0 size=    2304KiB time=00:00:02.41 bitrate=7810.1kbits/s speed=0.153x elapsed=0:00:15.81    \nframe=  149 fps=9.1 q=30.0 size=    2304KiB time=00:00:02.48 bitrate=7600.4kbits/s speed=0.152x elapsed=0:00:16.34    \nframe=  154 fps=9.1 q=27.0 size=    2304KiB time=00:00:02.56 bitrate=7353.6kbits/s speed=0.152x elapsed=0:00:16.87    \nframe=  158 fps=9.1 q=31.0 size=    2304KiB time=00:00:02.63 bitrate=7167.5kbits/s speed=0.151x elapsed=0:00:17.39    \nframe=  163 fps=9.1 q=17.0 size=    2304KiB time=00:00:02.71 bitrate=6947.6kbits/s speed=0.152x elapsed=0:00:17.92    \nframe=  168 fps=9.1 q=19.0 size=    2304KiB time=00:00:02.80 bitrate=6740.8kbits/s speed=0.152x elapsed=0:00:18.46    \nframe=  173 fps=9.1 q=22.0 size=    2304KiB time=00:00:02.88 bitrate=6546.0kbits/s speed=0.152x elapsed=0:00:18.99    \nframe=  177 fps=9.1 q=21.0 size=    2304KiB time=00:00:02.95 bitrate=6398.1kbits/s speed=0.151x elapsed=0:00:19.52    \nframe=  182 fps=9.1 q=21.0 size=    2304KiB time=00:00:03.03 bitrate=6222.3kbits/s speed=0.151x elapsed=0:00:20.05    \nframe=  187 fps=9.1 q=23.0 size=    2304KiB time=00:00:03.11 bitrate=6055.9kbits/s speed=0.151x elapsed=0:00:20.59    \nframe=  193 fps=9.1 q=30.0 size=    2304KiB time=00:00:03.21 bitrate=5867.7kbits/s speed=0.152x elapsed=0:00:21.12    \nframe=  199 fps=9.2 q=31.0 size=    2304KiB time=00:00:03.31 bitrate=5690.8kbits/s speed=0.153x elapsed=0:00:21.64    \nframe=  203 fps=9.2 q=27.0 size=    2304KiB time=00:00:03.38 bitrate=5578.6kbits/s speed=0.153x elapsed=0:00:22.18    \nframe=  209 fps=9.2 q=32.0 size=    2304KiB time=00:00:03.48 bitrate=5418.5kbits/s speed=0.153x elapsed=0:00:22.71    \nframe=  214 fps=9.2 q=27.0 size=    2304KiB time=00:00:03.56 bitrate=5291.9kbits/s speed=0.153x elapsed=0:00:23.24    \nframe=  218 fps=9.2 q=31.0 size=    2304KiB time=00:00:03.63 bitrate=5194.8kbits/s speed=0.153x elapsed=0:00:23.75    \nframe=  223 fps=9.2 q=22.0 size=    2304KiB time=00:00:03.71 bitrate=5078.3kbits/s speed=0.153x elapsed=0:00:24.28    \nframe=  229 fps=9.2 q=31.0 size=    2304KiB time=00:00:03.81 bitrate=4945.2kbits/s speed=0.154x elapsed=0:00:24.80    \nframe=  234 fps=9.2 q=20.0 size=    2304KiB time=00:00:03.90 bitrate=4839.6kbits/s speed=0.154x elapsed=0:00:25.33    \nframe=  239 fps=9.2 q=26.0 size=    2304KiB time=00:00:03.98 bitrate=4738.3kbits/s speed=0.154x elapsed=0:00:25.85    \nframe=  245 fps=9.3 q=26.0 size=    2304KiB time=00:00:04.08 bitrate=4622.3kbits/s speed=0.155x elapsed=0:00:26.38    \nframe=  250 fps=9.3 q=18.0 size=    2304KiB time=00:00:04.16 bitrate=4529.8kbits/s speed=0.155x elapsed=0:00:26.91    \nframe=  256 fps=9.3 q=18.0 size=    2304KiB time=00:00:04.26 bitrate=4423.7kbits/s speed=0.156x elapsed=0:00:27.43    \nframe=  260 fps=9.3 q=23.0 size=    4608KiB time=00:00:04.33 bitrate=8711.2kbits/s speed=0.155x elapsed=0:00:27.96    \nframe=  266 fps=9.3 q=26.0 size=    4608KiB time=00:00:04.43 bitrate=8514.8kbits/s speed=0.156x elapsed=0:00:28.47    \nframe=  271 fps=9.3 q=18.0 size=    4608KiB time=00:00:04.51 bitrate=8357.7kbits/s speed=0.156x elapsed=0:00:29.00    \nframe=  276 fps=9.3 q=29.0 size=    4608KiB time=00:00:04.60 bitrate=8206.2kbits/s speed=0.156x elapsed=0:00:29.52    \nframe=  276 fps=9.2 q=29.0 size=    4608KiB time=00:00:04.60 bitrate=8206.2kbits/s speed=0.153x elapsed=0:00:30.05    \nframe=  276 fps=9.0 q=29.0 size=    4608KiB time=00:00:04.60 bitrate=8206.2kbits/s speed=0.15x elapsed=0:00:30.57    \nframe=  276 fps=8.9 q=29.0 size=    4608KiB time=00:00:04.60 bitrate=8206.2kbits/s speed=0.148x elapsed=0:00:31.10    \nframe=  276 fps=8.7 q=29.0 size=    4608KiB time=00:00:04.60 bitrate=8206.2kbits/s speed=0.145x elapsed=0:00:31.62    \nframe=  276 fps=8.6 q=29.0 size=    4608KiB time=00:00:04.60 bitrate=8206.2kbits/s speed=0.143x elapsed=0:00:32.15    \n[out#0/webm @ 000002922bd30e00] video:5795KiB audio:0KiB subtitle:0KiB other streams:0KiB global headers:0KiB muxing overhead: 0.049730%\nframe=  300 fps=9.3 q=31.0 Lsize=    5798KiB time=00:00:05.00 bitrate=9499.1kbits/s speed=0.155x elapsed=0:00:32.26    \n",
  "seconds": 32.48334765434265,
  "probe_out": {}
}